<?xml version="1.0" encoding="utf-8"?>
<!-- Generator: Adobe Illustrator 18.0.0, SVG Export Plug-In . SVG Version: 6.00 Build 0)  -->
<!DOCTYPE svg PUBLIC "-//W3C//DTD SVG 1.1//EN" "http://www.w3.org/Graphics/SVG/1.1/DTD/svg11.dtd">
<svg version="1.1" xmlns="http://www.w3.org/2000/svg" xmlns:xlink="http://www.w3.org/1999/xlink" x="0px" y="0px"
	 viewBox="0 0 453.5 453.5" enable-background="new 0 0 453.5 453.5" xml:space="preserve">
<g id="Layer_4" display="none">
	<rect x="0" y="0" display="inline" fill="#66499E" width="453.5" height="453.5"/>
</g>
<g id="Layer_2" display="none">
	<rect x="44.7" display="inline" fill="#B52726" width="28.3" height="28.3"/>
	<rect x="88.6" display="inline" fill="#6C9EC5" width="28.3" height="28.3"/>
</g>
<g id="Layer_3">
	<g>
		<path fill="#FFFFFF" d="M214.7,380.5c-28.9,0-55.3-8.7-78.4-25.7c-27.2-20.1-49.9-52.2-67.6-95.3h-64l92-102.4l92,102.4h-57.1
			c23.3,40.5,53.1,61,88.8,61c38.7,0,70.6-24.6,70.9-24.9l3.1-2.5l38.6,44.8l-3.6,2.7C327.3,342.2,276,380.5,214.7,380.5z"/>
		<path fill="#B52726" d="M327,337.3c0,0-170.7,129-255.4-82H14.1l82.6-92l82.6,92h-54.8c66.2,124.4,169.4,43.7,169.4,43.7
			L327,337.3z"/>
		<path fill="#FFFFFF" d="M264.8,194.1h57.1c-23.3-40.5-53.1-61-88.8-61c-38.6,0-70.6,24.6-70.9,24.9l-3.1,2.4l-38.6-44.8l3.6-2.7
			c2.2-1.6,53.5-39.9,114.7-39.9c28.9,0,55.3,8.7,78.4,25.7c27.2,20.1,49.9,52.2,67.6,95.3h64l-92,102.4L264.8,194.1z"/>
		<path fill="#6C9EC5" d="M126.6,116.3c0,0,170.7-129,255.4,82h57.5l-82.6,92l-82.6-92H329c-66.2-124.4-169.4-43.7-169.4-43.7
			L126.6,116.3z"/>
	</g>
</g>
</svg>
